<svg xmlns="http://www.w3.org/2000/svg" xmlns:xlink="http://www.w3.org/1999/xlink" width="960" height="948.4"><rect width="960" height="948.4" rx="5" ry="5" class="a"/><svg y="0%" x="0%"><circle cx="20" cy="20" r="6" fill="#ff5f58"/><circle cx="40" cy="20" r="6" fill="#ffbd2e"/><circle cx="60" cy="20" r="6" fill="#18c132"/></svg><svg height="868.4" viewBox="0 0 90 86.84" width="900" x="25" xmlns="http://www.w3.org/2000/svg" xmlns:xlink="http://www.w3.org/1999/xlink" y="60"><style>@keyframes h{0%{transform:translateX(0)}95.8%{transform:translateX(-90px)}96.3%{transform:translateX(-180px)}97.5%{transform:translateX(-270px)}97.6%{transform:translateX(-360px)}98.5%{transform:translateX(-540px)}98.6%{transform:translateX(-900px)}98.7%{transform:translateX(-990px)}99.7%{transform:translateX(-1170px)}99.8%{transform:translateX(-1260px)}99.9%{transform:translateX(-1710px)}to{transform:translateX(-2070px)}}.a{fill:#282d35}.f{fill:#b9c0cb;white-space:pre}</style><g font-family="Monaco,Consolas,Menlo,'Bitstream Vera Sans Mono','Powerline Symbols',monospace" font-size="1.67"><defs><symbol id="1"><text y="1.67" class="f">========================================</text></symbol><symbol id="2"><text x="3.006" y="1.67" class="f">SimpleBTC</text><text x="13.026" y="1.67" class="f">-</text><text x="15.03" y="1.67" class="f">基于BTC的银行系统演示</text></symbol><symbol id="3"><text x="3.006" y="1.67" class="f">(secp256k1</text><text x="14.028" y="1.67" class="f">ECDSA</text><text x="20.04" y="1.67" class="f">真实签名)</text></symbol><symbol id="4"><text y="1.67" class="f">&gt;&gt;&gt;</text><text x="4.008" y="1.67" class="f">步骤</text><text x="7.014" y="1.67" class="f">1:</text><text x="10.02" y="1.67" class="f">初始化区块链</text></symbol><symbol id="5"><text y="1.67" class="f">✓</text><text x="2.004" y="1.67" class="f">区块链已创建，创世区块已生成</text></symbol><symbol id="6"><text x="2.004" y="1.67" class="f">创世地址:</text><text x="8.016" y="1.67" class="f">1BgGZ9tcN4rm9KBzDn7KprQz87SZ26SAMH</text></symbol><symbol id="7"><text y="1.67" class="f">&gt;&gt;&gt;</text><text x="4.008" y="1.67" class="f">步骤</text><text x="7.014" y="1.67" class="f">2:</text><text x="10.02" y="1.67" class="f">创建用户钱包（secp256k1）</text></symbol><symbol id="8"><text y="1.67" class="f">✓</text><text x="2.004" y="1.67" class="f">Alice</text><text x="8.016" y="1.67" class="f">的钱包地址:</text><text x="15.03" y="1.67" class="f">1B2FTjwc4Xb53vqQe4vzNYddVwezT6Yr14</text></symbol><symbol id="9"><text y="1.67" class="f">✓</text><text x="2.004" y="1.67" class="f">Bob</text><text x="6.012" y="1.67" class="f">的钱包地址:</text><text x="13.026" y="1.67" class="f">1KPjHsGU5kBDutqbvvx5QRGXma5fGgGgKD</text></symbol><symbol id="10"><text y="1.67" class="f">✓</text><text x="2.004" y="1.67" class="f">Charlie</text><text x="10.02" y="1.67" class="f">的钱包地址:</text><text x="17.034" y="1.67" class="f">1N45sapspW7Q2DUMsj6LdDR2JxRNdHiHRx</text></symbol><symbol id="11"><text y="1.67" class="f">&gt;&gt;&gt;</text><text x="4.008" y="1.67" class="f">步骤</text><text x="7.014" y="1.67" class="f">3:</text><text x="10.02" y="1.67" class="f">为Alice发放初始余额（创世钱包</text><text x="28.056" y="1.67" class="f">→</text><text x="30.06" y="1.67" class="f">Alice）</text></symbol><symbol id="12"><text y="1.67" class="f">✓</text><text x="2.004" y="1.67" class="f">交易已添加到内存池（ECDSA签名已验证）</text></symbol><symbol id="13"><text y="1.67" class="f">&gt;&gt;&gt;</text><text x="4.008" y="1.67" class="f">挖矿中，打包Alice的交易...</text></symbol><symbol id="14"><text y="1.67" class="f">✓</text><text x="2.004" y="1.67" class="f">区块已挖出</text></symbol><symbol id="15"><text y="1.67" class="f">&gt;&gt;&gt;</text><text x="4.008" y="1.67" class="f">为Bob发放初始余额（创世钱包</text><text x="20.04" y="1.67" class="f">→</text><text x="22.044" y="1.67" class="f">Bob）</text></symbol><symbol id="16"><text y="1.67" class="f">&gt;&gt;&gt;</text><text x="4.008" y="1.67" class="f">挖矿中，打包Bob的交易...</text></symbol><symbol id="17"><text y="1.67" class="f">&gt;&gt;&gt;</text><text x="4.008" y="1.67" class="f">步骤</text><text x="7.014" y="1.67" class="f">4:</text><text x="10.02" y="1.67" class="f">查询账户余额</text></symbol><symbol id="18"><text y="1.67" class="f">Alice</text><text x="6.012" y="1.67" class="f">的余额:</text><text x="11.022" y="1.67" class="f">1050</text><text x="16.032" y="1.67" class="f">BTC</text></symbol><symbol id="19"><text y="1.67" class="f">Bob</text><text x="4.008" y="1.67" class="f">的余额:</text><text x="9.018" y="1.67" class="f">850</text><text x="13.026" y="1.67" class="f">BTC</text></symbol><symbol id="20"><text y="1.67" class="f">Charlie</text><text x="8.016" y="1.67" class="f">的余额:</text><text x="13.026" y="1.67" class="f">0</text><text x="15.03" y="1.67" class="f">BTC</text></symbol><symbol id="21"><text y="1.67" class="f">&gt;&gt;&gt;</text><text x="4.008" y="1.67" class="f">步骤</text><text x="7.014" y="1.67" class="f">5:</text><text x="10.02" y="1.67" class="f">Alice</text><text x="16.032" y="1.67" class="f">向</text><text x="18.036" y="1.67" class="f">Bob</text><text x="22.044" y="1.67" class="f">转账</text><text x="25.05" y="1.67" class="f">30</text><text x="28.056" y="1.67" class="f">BTC（手续费2）</text></symbol><symbol id="22"><text y="1.67" class="f">✓</text><text x="2.004" y="1.67" class="f">交易已创建:</text><text x="9.018" y="1.67" class="f">88a4f2cd75b6cbe3d278eb98862941787f31c275c1833647b537ce8dc0324ea2</text></symbol><symbol id="23"><text y="1.67" class="f">✓</text><text x="2.004" y="1.67" class="f">交易已验证（ECDSA）并添加到内存池</text></symbol><symbol id="24"><text y="1.67" class="f">&gt;&gt;&gt;</text><text x="4.008" y="1.67" class="f">步骤</text><text x="7.014" y="1.67" class="f">6:</text><text x="10.02" y="1.67" class="f">Bob</text><text x="14.028" y="1.67" class="f">向</text><text x="16.032" y="1.67" class="f">Charlie</text><text x="24.048" y="1.67" class="f">转账</text><text x="27.054" y="1.67" class="f">20</text><text x="30.06" y="1.67" class="f">BTC（手续费5，优先打包）</text></symbol><symbol id="25"><text y="1.67" class="f">✓</text><text x="2.004" y="1.67" class="f">交易已创建:</text><text x="9.018" y="1.67" class="f">e11ad534b06b7895c4d776f1c946f823704fe4d54a787375c64f198134f3061b</text></symbol><symbol id="26"><text y="1.67" class="f">&gt;&gt;&gt;</text><text x="4.008" y="1.67" class="f">步骤</text><text x="7.014" y="1.67" class="f">7:</text><text x="10.02" y="1.67" class="f">并行挖矿打包待处理交易</text></symbol><symbol id="27"><text y="1.67" class="f">矿工地址:</text><text x="6.012" y="1.67" class="f">18Acuj8aVDwcgFdtsbEoD9gi3MsuUJLzx8</text></symbol><symbol id="28"><text y="1.67" class="f">✓</text><text x="2.004" y="1.67" class="f">区块已成功挖出并添加到链中</text></symbol><symbol id="29"><text y="1.67" class="f">&gt;&gt;&gt;</text><text x="4.008" y="1.67" class="f">步骤</text><text x="7.014" y="1.67" class="f">8:</text><text x="10.02" y="1.67" class="f">查询交易后的账户余额</text></symbol><symbol id="30"><text y="1.67" class="f">Alice</text><text x="6.012" y="1.67" class="f">的余额:</text><text x="11.022" y="1.67" class="f">1018</text><text x="16.032" y="1.67" class="f">BTC</text><text x="20.04" y="1.67" class="f">(应该减少30)</text></symbol><symbol id="31"><text y="1.67" class="f">Bob</text><text x="4.008" y="1.67" class="f">的余额:</text><text x="9.018" y="1.67" class="f">855</text><text x="13.026" y="1.67" class="f">BTC</text><text x="17.034" y="1.67" class="f">(应该增加30减少20)</text></symbol><symbol id="32"><text y="1.67" class="f">Charlie</text><text x="8.016" y="1.67" class="f">的余额:</text><text x="13.026" y="1.67" class="f">20</text><text x="16.032" y="1.67" class="f">BTC</text><text x="20.04" y="1.67" class="f">(应该增加20)</text></symbol><symbol id="33"><text y="1.67" class="f">矿工的余额:</text><text x="7.014" y="1.67" class="f">57</text><text x="10.02" y="1.67" class="f">BTC</text><text x="14.028" y="1.67" class="f">(挖矿奖励)</text></symbol><symbol id="34"><text y="1.67" class="f">&gt;&gt;&gt;</text><text x="4.008" y="1.67" class="f">步骤</text><text x="7.014" y="1.67" class="f">9:</text><text x="10.02" y="1.67" class="f">测试签名安全性</text></symbol><symbol id="35"><text y="1.67" class="f">Charlie</text><text x="8.016" y="1.67" class="f">尝试向</text><text x="12.024" y="1.67" class="f">Alice</text><text x="18.036" y="1.67" class="f">转账</text><text x="21.042" y="1.67" class="f">100</text><text x="25.05" y="1.67" class="f">BTC（余额不足）</text></symbol><symbol id="36"><text y="1.67" class="f">✓</text><text x="2.004" y="1.67" class="f">正确拒绝:</text><text x="8.016" y="1.67" class="f">余额不足（包括交易费）</text></symbol><symbol id="37"><text y="1.67" class="f">&gt;&gt;&gt;</text><text x="4.008" y="1.67" class="f">步骤</text><text x="7.014" y="1.67" class="f">10:</text><text x="11.022" y="1.67" class="f">验证区块链完整性</text></symbol><symbol id="38"><text y="1.67" class="f">✓</text><text x="2.004" y="1.67" class="f">区块链验证通过，所有区块和ECDSA签名都有效</text></symbol><symbol id="39"><text y="1.67" class="f">&gt;&gt;&gt;</text><text x="4.008" y="1.67" class="f">步骤</text><text x="7.014" y="1.67" class="f">11:</text><text x="11.022" y="1.67" class="f">打印区块链详细信息</text></symbol><symbol id="40"><text y="1.67" class="f">==========</text><text x="11.022" y="1.67" class="f">区块链信息</text><text x="17.034" y="1.67" class="f">==========</text></symbol><symbol id="41"><text y="1.67" class="f">---</text><text x="4.008" y="1.67" class="f">区块</text><text x="7.014" y="1.67" class="f">#0</text><text x="10.02" y="1.67" class="f">---</text></symbol><symbol id="42"><text y="1.67" class="f">时间戳:</text><text x="5.01" y="1.67" class="f">1774640832</text></symbol><symbol id="43"><text y="1.67" class="f">哈希:</text><text x="4.008" y="1.67" class="f">d92aa8dc5db19e1c826cd6b1861177241540c7a229ab7d007bcfb53354735139</text></symbol><symbol id="44"><text y="1.67" class="f">前一个哈希:</text><text x="7.014" y="1.67" class="f">0</text></symbol><symbol id="45"><text y="1.67" class="f">Nonce:</text><text x="7.014" y="1.67" class="f">0</text></symbol><symbol id="46"><text y="1.67" class="f">交易数量:</text><text x="6.012" y="1.67" class="f">1</text></symbol><symbol id="47"><text x="2.004" y="1.67" class="f">交易</text><text x="5.01" y="1.67" class="f">#0:</text><text x="9.018" y="1.67" class="f">0dacd9bd71193819af207eb676c6fe1954765565628895a73045bdeba19bb009</text></symbol><symbol id="48"><text x="4.008" y="1.67" class="f">类型:</text><text x="8.016" y="1.67" class="f">Coinbase（挖矿奖励）</text></symbol><symbol id="49"><text x="4.008" y="1.67" class="f">输入数:</text><text x="9.018" y="1.67" class="f">1</text></symbol><symbol id="50"><text x="4.008" y="1.67" class="f">输出数:</text><text x="9.018" y="1.67" class="f">1</text></symbol><symbol id="51"><text x="6.012" y="1.67" class="f">输出</text><text x="9.018" y="1.67" class="f">0:</text><text x="12.024" y="1.67" class="f">10000000</text><text x="21.042" y="1.67" class="f">-&gt;</text><text x="24.048" y="1.67" class="f">1BgGZ9tcN4rm9KBzDn7KprQz87SZ26SAMH</text></symbol><symbol id="52"><text y="1.67" class="f">---</text><text x="4.008" y="1.67" class="f">区块</text><text x="7.014" y="1.67" class="f">#1</text><text x="10.02" y="1.67" class="f">---</text></symbol><symbol id="53"><text y="1.67" class="f">哈希:</text><text x="4.008" y="1.67" class="f">0001592b6410cbc22a24d1214d705566eafa0be7bc7d785d57c44ca0d46ba883</text></symbol><symbol id="54"><text y="1.67" class="f">前一个哈希:</text><text x="7.014" y="1.67" class="f">d92aa8dc5db19e1c826cd6b1861177241540c7a229ab7d007bcfb53354735139</text></symbol><symbol id="55"><text y="1.67" class="f">Nonce:</text><text x="7.014" y="1.67" class="f">1000172</text></symbol><symbol id="56"><text y="1.67" class="f">交易数量:</text><text x="6.012" y="1.67" class="f">2</text></symbol><symbol id="57"><text x="2.004" y="1.67" class="f">交易</text><text x="5.01" y="1.67" class="f">#0:</text><text x="9.018" y="1.67" class="f">721c68bd95a020dc05c970a45a179c489530ff4f03b820ef515b3dd4684fde7e</text></symbol><symbol id="58"><text x="6.012" y="1.67" class="f">输出</text><text x="9.018" y="1.67" class="f">0:</text><text x="12.024" y="1.67" class="f">50</text><text x="15.03" y="1.67" class="f">-&gt;</text><text x="18.036" y="1.67" class="f">1B2FTjwc4Xb53vqQe4vzNYddVwezT6Yr14</text></symbol><symbol id="59"><text x="2.004" y="1.67" class="f">交易</text><text x="5.01" y="1.67" class="f">#1:</text><text x="9.018" y="1.67" class="f">3e808cf37faf2730afd4df97ea7071ed34eb1aa8341e8cba42916525596d73eb</text></symbol><symbol id="60"><text x="4.008" y="1.67" class="f">交易费:</text><text x="9.018" y="1.67" class="f">0</text><text x="11.022" y="1.67" class="f">satoshi</text></symbol><symbol id="61"><text x="4.008" y="1.67" class="f">费率:</text><text x="8.016" y="1.67" class="f">0.00</text><text x="13.026" y="1.67" class="f">sat/byte</text></symbol><symbol id="62"><text x="4.008" y="1.67" class="f">输出数:</text><text x="9.018" y="1.67" class="f">2</text></symbol><symbol id="63"><text x="6.012" y="1.67" class="f">输出</text><text x="9.018" y="1.67" class="f">0:</text><text x="12.024" y="1.67" class="f">1000</text><text x="17.034" y="1.67" class="f">-&gt;</text><text x="20.04" y="1.67" class="f">1B2FTjwc4Xb53vqQe4vzNYddVwezT6Yr14</text></symbol><symbol id="64"><text x="6.012" y="1.67" class="f">输出</text><text x="9.018" y="1.67" class="f">1:</text><text x="12.024" y="1.67" class="f">9999000</text><text x="20.04" y="1.67" class="f">-&gt;</text><text x="23.046" y="1.67" class="f">1BgGZ9tcN4rm9KBzDn7KprQz87SZ26SAMH</text></symbol><symbol id="65"><text y="1.67" class="f">---</text><text x="4.008" y="1.67" class="f">区块</text><text x="7.014" y="1.67" class="f">#2</text><text x="10.02" y="1.67" class="f">---</text></symbol><symbol id="66"><text y="1.67" class="f">哈希:</text><text x="4.008" y="1.67" class="f">0006ea07e3660ba432cd583b8f6276849cea600c0b470ddd944a88b849339958</text></symbol><symbol id="67"><text y="1.67" class="f">前一个哈希:</text><text x="7.014" y="1.67" class="f">0001592b6410cbc22a24d1214d705566eafa0be7bc7d785d57c44ca0d46ba883</text></symbol><symbol id="68"><text y="1.67" class="f">Nonce:</text><text x="7.014" y="1.67" class="f">6000404</text></symbol><symbol id="69"><text x="2.004" y="1.67" class="f">交易</text><text x="5.01" y="1.67" class="f">#0:</text><text x="9.018" y="1.67" class="f">22e962a297eda2bd3703544f13c93a7ff13f49a7b683335fd85e420120fed1f4</text></symbol><symbol id="70"><text x="6.012" y="1.67" class="f">输出</text><text x="9.018" y="1.67" class="f">0:</text><text x="12.024" y="1.67" class="f">50</text><text x="15.03" y="1.67" class="f">-&gt;</text><text x="18.036" y="1.67" class="f">1KPjHsGU5kBDutqbvvx5QRGXma5fGgGgKD</text></symbol><symbol id="71"><text x="2.004" y="1.67" class="f">交易</text><text x="5.01" y="1.67" class="f">#1:</text><text x="9.018" y="1.67" class="f">0113a614d26e0e31fe277203427ffceadef0f305b8bb788e4c202899d452e693</text></symbol><symbol id="72"><text x="6.012" y="1.67" class="f">输出</text><text x="9.018" y="1.67" class="f">0:</text><text x="12.024" y="1.67" class="f">800</text><text x="16.032" y="1.67" class="f">-&gt;</text><text x="19.038" y="1.67" class="f">1KPjHsGU5kBDutqbvvx5QRGXma5fGgGgKD</text></symbol><symbol id="73"><text x="6.012" y="1.67" class="f">输出</text><text x="9.018" y="1.67" class="f">1:</text><text x="12.024" y="1.67" class="f">9998200</text><text x="20.04" y="1.67" class="f">-&gt;</text><text x="23.046" y="1.67" class="f">1BgGZ9tcN4rm9KBzDn7KprQz87SZ26SAMH</text></symbol><symbol id="74"><text y="1.67" class="f">---</text><text x="4.008" y="1.67" class="f">区块</text><text x="7.014" y="1.67" class="f">#3</text><text x="10.02" y="1.67" class="f">---</text></symbol><symbol id="75"><text y="1.67" class="f">哈希:</text><text x="4.008" y="1.67" class="f">0003ceaf96cf2de032997643b8a368dc006650b7634666d7b8a667873c5f94dc</text></symbol><symbol id="76"><text y="1.67" class="f">前一个哈希:</text><text x="7.014" y="1.67" class="f">0006ea07e3660ba432cd583b8f6276849cea600c0b470ddd944a88b849339958</text></symbol><symbol id="77"><text y="1.67" class="f">Nonce:</text><text x="7.014" y="1.67" class="f">7000042</text></symbol><symbol id="78"><text y="1.67" class="f">交易数量:</text><text x="6.012" y="1.67" class="f">3</text></symbol><symbol id="79"><text x="2.004" y="1.67" class="f">交易</text><text x="5.01" y="1.67" class="f">#0:</text><text x="9.018" y="1.67" class="f">69752048e2a52963ab8de036440095dc7ee61183cb10e2738ad24eb1c1b02585</text></symbol><symbol id="80"><text x="6.012" y="1.67" class="f">输出</text><text x="9.018" y="1.67" class="f">0:</text><text x="12.024" y="1.67" class="f">57</text><text x="15.03" y="1.67" class="f">-&gt;</text><text x="18.036" y="1.67" class="f">18Acuj8aVDwcgFdtsbEoD9gi3MsuUJLzx8</text></symbol><symbol id="81"><text x="2.004" y="1.67" class="f">交易</text><text x="5.01" y="1.67" class="f">#1:</text><text x="9.018" y="1.67" class="f">e11ad534b06b7895c4d776f1c946f823704fe4d54a787375c64f198134f3061b</text></symbol><symbol id="82"><text x="4.008" y="1.67" class="f">交易费:</text><text x="9.018" y="1.67" class="f">5</text><text x="11.022" y="1.67" class="f">satoshi</text></symbol><symbol id="83"><text x="4.008" y="1.67" class="f">费率:</text><text x="8.016" y="1.67" class="f">0.01</text><text x="13.026" y="1.67" class="f">sat/byte</text></symbol><symbol id="84"><text x="6.012" y="1.67" class="f">输出</text><text x="9.018" y="1.67" class="f">0:</text><text x="12.024" y="1.67" class="f">20</text><text x="15.03" y="1.67" class="f">-&gt;</text><text x="18.036" y="1.67" class="f">1N45sapspW7Q2DUMsj6LdDR2JxRNdHiHRx</text></symbol><symbol id="85"><text x="6.012" y="1.67" class="f">输出</text><text x="9.018" y="1.67" class="f">1:</text><text x="12.024" y="1.67" class="f">775</text><text x="16.032" y="1.67" class="f">-&gt;</text><text x="19.038" y="1.67" class="f">1KPjHsGU5kBDutqbvvx5QRGXma5fGgGgKD</text></symbol><symbol id="86"><text x="2.004" y="1.67" class="f">交易</text><text x="5.01" y="1.67" class="f">#2:</text><text x="9.018" y="1.67" class="f">88a4f2cd75b6cbe3d278eb98862941787f31c275c1833647b537ce8dc0324ea2</text></symbol><symbol id="87"><text x="4.008" y="1.67" class="f">交易费:</text><text x="9.018" y="1.67" class="f">2</text><text x="11.022" y="1.67" class="f">satoshi</text></symbol><symbol id="88"><text x="6.012" y="1.67" class="f">输出</text><text x="9.018" y="1.67" class="f">0:</text><text x="12.024" y="1.67" class="f">30</text><text x="15.03" y="1.67" class="f">-&gt;</text><text x="18.036" y="1.67" class="f">1KPjHsGU5kBDutqbvvx5QRGXma5fGgGgKD</text></symbol><symbol id="89"><text x="6.012" y="1.67" class="f">输出</text><text x="9.018" y="1.67" class="f">1:</text><text x="12.024" y="1.67" class="f">18</text><text x="15.03" y="1.67" class="f">-&gt;</text><text x="18.036" y="1.67" class="f">1B2FTjwc4Xb53vqQe4vzNYddVwezT6Yr14</text></symbol><symbol id="90"><text y="1.67" class="f">================================</text></symbol><symbol id="91"><text x="3.006" y="1.67" class="f">密码学安全特性</text></symbol><symbol id="92"><text y="1.67" class="f">【secp256k1</text><text x="11.022" y="1.67" class="f">ECDSA签名】</text></symbol><symbol id="93"><text y="1.67" class="f">-</text><text x="2.004" y="1.67" class="f">与真实比特币使用相同的椭圆曲线:</text><text x="19.038" y="1.67" class="f">y²</text><text x="22.044" y="1.67" class="f">=</text><text x="24.048" y="1.67" class="f">x³</text><text x="27.054" y="1.67" class="f">+</text><text x="29.058" y="1.67" class="f">7</text><text x="31.062" y="1.67" class="f">(mod</text><text x="36.072" y="1.67" class="f">p)</text></symbol><symbol id="94"><text y="1.67" class="f">-</text><text x="2.004" y="1.67" class="f">私钥:</text><text x="6.012" y="1.67" class="f">256位随机数（32字节）</text></symbol><symbol id="95"><text y="1.67" class="f">-</text><text x="2.004" y="1.67" class="f">公钥:</text><text x="6.012" y="1.67" class="f">椭圆曲线点（压缩格式33字节）</text></symbol><symbol id="a"><path fill="transparent" d="M0 0h90v41H0z"/></symbol></defs><path class="a" d="M0 0h90v86.84H0z"/><g style="animation-duration:.133252s;animation-iteration-count:infinite;animation-name:h;animation-timing-function:steps(1,end)"><svg width="2160"><svg><use xlink:href="#a"/></svg><svg x="90"><use xlink:href="#a"/><use xlink:href="#1"/><use xlink:href="#2" y="2.171"/><use xlink:href="#3" y="4.342"/><use xlink:href="#1" y="6.513"/><use xlink:href="#4" y="10.855"/></svg><svg x="180"><use xlink:href="#a"/><use xlink:href="#1"/><use xlink:href="#2" y="2.171"/><use xlink:href="#3" y="4.342"/><use xlink:href="#1" y="6.513"/><use xlink:href="#4" y="10.855"/><use xlink:href="#5" y="13.026"/><use xlink:href="#6" y="15.197"/><use xlink:href="#7" y="19.539"/><use xlink:href="#8" y="21.71"/><use xlink:href="#9" y="23.881"/><use xlink:href="#10" y="26.052"/><use xlink:href="#11" y="30.394"/><use xlink:href="#12" y="32.565"/><use xlink:href="#13" y="34.736"/></svg><svg x="270"><use xlink:href="#a"/><use xlink:href="#1"/><use xlink:href="#2" y="2.171"/><use xlink:href="#3" y="4.342"/><use xlink:href="#1" y="6.513"/><use xlink:href="#4" y="10.855"/><use xlink:href="#5" y="13.026"/><use xlink:href="#6" y="15.197"/><use xlink:href="#7" y="19.539"/><use xlink:href="#8" y="21.71"/><use xlink:href="#9" y="23.881"/><use xlink:href="#10" y="26.052"/><use xlink:href="#11" y="30.394"/><use xlink:href="#12" y="32.565"/><use xlink:href="#13" y="34.736"/><use xlink:href="#14" y="36.907"/><use xlink:href="#15" y="41.249"/></svg><svg x="360"><use xlink:href="#a"/><use xlink:href="#1"/><use xlink:href="#2" y="2.171"/><use xlink:href="#3" y="4.342"/><use xlink:href="#1" y="6.513"/><use xlink:href="#4" y="10.855"/><use xlink:href="#5" y="13.026"/><use xlink:href="#6" y="15.197"/><use xlink:href="#7" y="19.539"/><use xlink:href="#8" y="21.71"/><use xlink:href="#9" y="23.881"/><use xlink:href="#10" y="26.052"/><use xlink:href="#11" y="30.394"/><use xlink:href="#12" y="32.565"/><use xlink:href="#13" y="34.736"/><use xlink:href="#14" y="36.907"/><use xlink:href="#15" y="41.249"/><use xlink:href="#12" y="43.42"/><use xlink:href="#16" y="45.591"/></svg><svg x="450"><use xlink:href="#a"/><use xlink:href="#1"/><use xlink:href="#2" y="2.171"/><use xlink:href="#3" y="4.342"/><use xlink:href="#1" y="6.513"/><use xlink:href="#4" y="10.855"/><use xlink:href="#5" y="13.026"/><use xlink:href="#6" y="15.197"/><use xlink:href="#7" y="19.539"/><use xlink:href="#8" y="21.71"/><use xlink:href="#9" y="23.881"/><use xlink:href="#10" y="26.052"/><use xlink:href="#11" y="30.394"/><use xlink:href="#12" y="32.565"/><use xlink:href="#13" y="34.736"/><use xlink:href="#14" y="36.907"/><use xlink:href="#15" y="41.249"/><use xlink:href="#12" y="43.42"/><use xlink:href="#16" y="45.591"/><use xlink:href="#14" y="47.762"/><use xlink:href="#17" y="52.104"/><use xlink:href="#18" y="54.275"/></svg><svg x="540"><use xlink:href="#a"/><use xlink:href="#1"/><use xlink:href="#2" y="2.171"/><use xlink:href="#3" y="4.342"/><use xlink:href="#1" y="6.513"/><use xlink:href="#4" y="10.855"/><use xlink:href="#5" y="13.026"/><use xlink:href="#6" y="15.197"/><use xlink:href="#7" y="19.539"/><use xlink:href="#8" y="21.71"/><use xlink:href="#9" y="23.881"/><use xlink:href="#10" y="26.052"/><use xlink:href="#11" y="30.394"/><use xlink:href="#12" y="32.565"/><use xlink:href="#13" y="34.736"/><use xlink:href="#14" y="36.907"/><use xlink:href="#15" y="41.249"/><use xlink:href="#12" y="43.42"/><use xlink:href="#16" y="45.591"/><use xlink:href="#14" y="47.762"/><use xlink:href="#17" y="52.104"/><use xlink:href="#18" y="54.275"/><use xlink:href="#19" y="56.446"/><use xlink:href="#20" y="58.617"/><use xlink:href="#21" y="62.959"/></svg><svg x="630"><use xlink:href="#a"/><use xlink:href="#1"/><use xlink:href="#2" y="2.171"/><use xlink:href="#3" y="4.342"/><use xlink:href="#1" y="6.513"/><use xlink:href="#4" y="10.855"/><use xlink:href="#5" y="13.026"/><use xlink:href="#6" y="15.197"/><use xlink:href="#7" y="19.539"/><use xlink:href="#8" y="21.71"/><use xlink:href="#9" y="23.881"/><use xlink:href="#10" y="26.052"/><use xlink:href="#11" y="30.394"/><use xlink:href="#12" y="32.565"/><use xlink:href="#13" y="34.736"/><use xlink:href="#14" y="36.907"/><use xlink:href="#15" y="41.249"/><use xlink:href="#12" y="43.42"/><use xlink:href="#16" y="45.591"/><use xlink:href="#14" y="47.762"/><use xlink:href="#17" y="52.104"/><use xlink:href="#18" y="54.275"/><use xlink:href="#19" y="56.446"/><use xlink:href="#20" y="58.617"/><use xlink:href="#21" y="62.959"/><use xlink:href="#22" y="65.13"/></svg><svg x="720"><use xlink:href="#a"/><use xlink:href="#1"/><use xlink:href="#2" y="2.171"/><use xlink:href="#3" y="4.342"/><use xlink:href="#1" y="6.513"/><use xlink:href="#4" y="10.855"/><use xlink:href="#5" y="13.026"/><use xlink:href="#6" y="15.197"/><use xlink:href="#7" y="19.539"/><use xlink:href="#8" y="21.71"/><use xlink:href="#9" y="23.881"/><use xlink:href="#10" y="26.052"/><use xlink:href="#11" y="30.394"/><use xlink:href="#12" y="32.565"/><use xlink:href="#13" y="34.736"/><use xlink:href="#14" y="36.907"/><use xlink:href="#15" y="41.249"/><use xlink:href="#12" y="43.42"/><use xlink:href="#16" y="45.591"/><use xlink:href="#14" y="47.762"/><use xlink:href="#17" y="52.104"/><use xlink:href="#18" y="54.275"/><use xlink:href="#19" y="56.446"/><use xlink:href="#20" y="58.617"/><use xlink:href="#21" y="62.959"/><use xlink:href="#22" y="65.13"/><use xlink:href="#23" y="67.301"/><use xlink:href="#24" y="71.643"/></svg><svg x="810"><use xlink:href="#a"/><use xlink:href="#1"/><use xlink:href="#2" y="2.171"/><use xlink:href="#3" y="4.342"/><use xlink:href="#1" y="6.513"/><use xlink:href="#4" y="10.855"/><use xlink:href="#5" y="13.026"/><use xlink:href="#6" y="15.197"/><use xlink:href="#7" y="19.539"/><use xlink:href="#8" y="21.71"/><use xlink:href="#9" y="23.881"/><use xlink:href="#10" y="26.052"/><use xlink:href="#11" y="30.394"/><use xlink:href="#12" y="32.565"/><use xlink:href="#13" y="34.736"/><use xlink:href="#14" y="36.907"/><use xlink:href="#15" y="41.249"/><use xlink:href="#12" y="43.42"/><use xlink:href="#16" y="45.591"/><use xlink:href="#14" y="47.762"/><use xlink:href="#17" y="52.104"/><use xlink:href="#18" y="54.275"/><use xlink:href="#19" y="56.446"/><use xlink:href="#20" y="58.617"/><use xlink:href="#21" y="62.959"/><use xlink:href="#22" y="65.13"/><use xlink:href="#23" y="67.301"/><use xlink:href="#24" y="71.643"/><use xlink:href="#25" y="73.814"/></svg><svg x="900"><use xlink:href="#a"/><use xlink:href="#1"/><use xlink:href="#2" y="2.171"/><use xlink:href="#3" y="4.342"/><use xlink:href="#1" y="6.513"/><use xlink:href="#4" y="10.855"/><use xlink:href="#5" y="13.026"/><use xlink:href="#6" y="15.197"/><use xlink:href="#7" y="19.539"/><use xlink:href="#8" y="21.71"/><use xlink:href="#9" y="23.881"/><use xlink:href="#10" y="26.052"/><use xlink:href="#11" y="30.394"/><use xlink:href="#12" y="32.565"/><use xlink:href="#13" y="34.736"/><use xlink:href="#14" y="36.907"/><use xlink:href="#15" y="41.249"/><use xlink:href="#12" y="43.42"/><use xlink:href="#16" y="45.591"/><use xlink:href="#14" y="47.762"/><use xlink:href="#17" y="52.104"/><use xlink:href="#18" y="54.275"/><use xlink:href="#19" y="56.446"/><use xlink:href="#20" y="58.617"/><use xlink:href="#21" y="62.959"/><use xlink:href="#22" y="65.13"/><use xlink:href="#23" y="67.301"/><use xlink:href="#24" y="71.643"/><use xlink:href="#25" y="73.814"/><use xlink:href="#23" y="75.985"/><use xlink:href="#26" y="80.327"/></svg><svg x="990"><use xlink:href="#a"/><use xlink:href="#1"/><use xlink:href="#2" y="2.171"/><use xlink:href="#3" y="4.342"/><use xlink:href="#1" y="6.513"/><use xlink:href="#4" y="10.855"/><use xlink:href="#5" y="13.026"/><use xlink:href="#6" y="15.197"/><use xlink:href="#7" y="19.539"/><use xlink:href="#8" y="21.71"/><use xlink:href="#9" y="23.881"/><use xlink:href="#10" y="26.052"/><use xlink:href="#11" y="30.394"/><use xlink:href="#12" y="32.565"/><use xlink:href="#13" y="34.736"/><use xlink:href="#14" y="36.907"/><use xlink:href="#15" y="41.249"/><use xlink:href="#12" y="43.42"/><use xlink:href="#16" y="45.591"/><use xlink:href="#14" y="47.762"/><use xlink:href="#17" y="52.104"/><use xlink:href="#18" y="54.275"/><use xlink:href="#19" y="56.446"/><use xlink:href="#20" y="58.617"/><use xlink:href="#21" y="62.959"/><use xlink:href="#22" y="65.13"/><use xlink:href="#23" y="67.301"/><use xlink:href="#24" y="71.643"/><use xlink:href="#25" y="73.814"/><use xlink:href="#23" y="75.985"/><use xlink:href="#26" y="80.327"/><use xlink:href="#27" y="82.498"/></svg><svg x="1080"><use xlink:href="#a"/><use xlink:href="#4"/><use xlink:href="#5" y="2.171"/><use xlink:href="#6" y="4.342"/><use xlink:href="#7" y="8.684"/><use xlink:href="#8" y="10.855"/><use xlink:href="#9" y="13.026"/><use xlink:href="#10" y="15.197"/><use xlink:href="#11" y="19.539"/><use xlink:href="#12" y="21.71"/><use xlink:href="#13" y="23.881"/><use xlink:href="#14" y="26.052"/><use xlink:href="#15" y="30.394"/><use xlink:href="#12" y="32.565"/><use xlink:href="#16" y="34.736"/><use xlink:href="#14" y="36.907"/><use xlink:href="#17" y="41.249"/><use xlink:href="#18" y="43.42"/><use xlink:href="#19" y="45.591"/><use xlink:href="#20" y="47.762"/><use xlink:href="#21" y="52.104"/><use xlink:href="#22" y="54.275"/><use xlink:href="#23" y="56.446"/><use xlink:href="#24" y="60.788"/><use xlink:href="#25" y="62.959"/><use xlink:href="#23" y="65.13"/><use xlink:href="#26" y="69.472"/><use xlink:href="#27" y="71.643"/><use xlink:href="#28" y="73.814"/><use xlink:href="#29" y="78.156"/><use xlink:href="#30" y="80.327"/><use xlink:href="#31" y="82.498"/><use xlink:href="#32" y="84.669"/></svg><svg x="1170"><use xlink:href="#a"/><use xlink:href="#10"/><use xlink:href="#11" y="4.342"/><use xlink:href="#12" y="6.513"/><use xlink:href="#13" y="8.684"/><use xlink:href="#14" y="10.855"/><use xlink:href="#15" y="15.197"/><use xlink:href="#12" y="17.368"/><use xlink:href="#16" y="19.539"/><use xlink:href="#14" y="21.71"/><use xlink:href="#17" y="26.052"/><use xlink:href="#18" y="28.223"/><use xlink:href="#19" y="30.394"/><use xlink:href="#20" y="32.565"/><use xlink:href="#21" y="36.907"/><use xlink:href="#22" y="39.078"/><use xlink:href="#23" y="41.249"/><use xlink:href="#24" y="45.591"/><use xlink:href="#25" y="47.762"/><use xlink:href="#23" y="49.933"/><use xlink:href="#26" y="54.275"/><use xlink:href="#27" y="56.446"/><use xlink:href="#28" y="58.617"/><use xlink:href="#29" y="62.959"/><use xlink:href="#30" y="65.13"/><use xlink:href="#31" y="67.301"/><use xlink:href="#32" y="69.472"/><use xlink:href="#33" y="71.643"/><use xlink:href="#34" y="75.985"/><use xlink:href="#35" y="78.156"/><use xlink:href="#36" y="80.327"/><use xlink:href="#37" y="84.669"/></svg><svg x="1260"><use xlink:href="#a"/><use xlink:href="#12"/><use xlink:href="#16" y="2.171"/><use xlink:href="#14" y="4.342"/><use xlink:href="#17" y="8.684"/><use xlink:href="#18" y="10.855"/><use xlink:href="#19" y="13.026"/><use xlink:href="#20" y="15.197"/><use xlink:href="#21" y="19.539"/><use xlink:href="#22" y="21.71"/><use xlink:href="#23" y="23.881"/><use xlink:href="#24" y="28.223"/><use xlink:href="#25" y="30.394"/><use xlink:href="#23" y="32.565"/><use xlink:href="#26" y="36.907"/><use xlink:href="#27" y="39.078"/><use xlink:href="#28" y="41.249"/><use xlink:href="#29" y="45.591"/><use xlink:href="#30" y="47.762"/><use xlink:href="#31" y="49.933"/><use xlink:href="#32" y="52.104"/><use xlink:href="#33" y="54.275"/><use xlink:href="#34" y="58.617"/><use xlink:href="#35" y="60.788"/><use xlink:href="#36" y="62.959"/><use xlink:href="#37" y="67.301"/><use xlink:href="#38" y="69.472"/><use xlink:href="#39" y="73.814"/><use xlink:href="#40" y="78.156"/><use xlink:href="#41" y="82.498"/><use xlink:href="#42" y="84.669"/></svg><svg x="1350"><use xlink:href="#a"/><use xlink:href="#19"/><use xlink:href="#20" y="2.171"/><use xlink:href="#21" y="6.513"/><use xlink:href="#22" y="8.684"/><use xlink:href="#23" y="10.855"/><use xlink:href="#24" y="15.197"/><use xlink:href="#25" y="17.368"/><use xlink:href="#23" y="19.539"/><use xlink:href="#26" y="23.881"/><use xlink:href="#27" y="26.052"/><use xlink:href="#28" y="28.223"/><use xlink:href="#29" y="32.565"/><use xlink:href="#30" y="34.736"/><use xlink:href="#31" y="36.907"/><use xlink:href="#32" y="39.078"/><use xlink:href="#33" y="41.249"/><use xlink:href="#34" y="45.591"/><use xlink:href="#35" y="47.762"/><use xlink:href="#36" y="49.933"/><use xlink:href="#37" y="54.275"/><use xlink:href="#38" y="56.446"/><use xlink:href="#39" y="60.788"/><use xlink:href="#40" y="65.13"/><use xlink:href="#41" y="69.472"/><use xlink:href="#42" y="71.643"/><use xlink:href="#43" y="73.814"/><use xlink:href="#44" y="75.985"/><use xlink:href="#45" y="78.156"/><use xlink:href="#46" y="80.327"/><use xlink:href="#47" y="82.498"/><use xlink:href="#48" y="84.669"/></svg><svg x="1440"><use xlink:href="#a"/><use xlink:href="#35"/><use xlink:href="#36" y="2.171"/><use xlink:href="#37" y="6.513"/><use xlink:href="#38" y="8.684"/><use xlink:href="#39" y="13.026"/><use xlink:href="#40" y="17.368"/><use xlink:href="#41" y="21.71"/><use xlink:href="#42" y="23.881"/><use xlink:href="#43" y="26.052"/><use xlink:href="#44" y="28.223"/><use xlink:href="#45" y="30.394"/><use xlink:href="#46" y="32.565"/><use xlink:href="#47" y="34.736"/><use xlink:href="#48" y="36.907"/><use xlink:href="#49" y="39.078"/><use xlink:href="#50" y="41.249"/><use xlink:href="#51" y="43.42"/><use xlink:href="#52" y="47.762"/><use xlink:href="#42" y="49.933"/><use xlink:href="#53" y="52.104"/><use xlink:href="#54" y="54.275"/><use xlink:href="#55" y="56.446"/><use xlink:href="#56" y="58.617"/><use xlink:href="#57" y="60.788"/><use xlink:href="#48" y="62.959"/><use xlink:href="#49" y="65.13"/><use xlink:href="#50" y="67.301"/><use xlink:href="#58" y="69.472"/><use xlink:href="#59" y="71.643"/><use xlink:href="#60" y="73.814"/><use xlink:href="#61" y="75.985"/><use xlink:href="#49" y="78.156"/><use xlink:href="#62" y="80.327"/><use xlink:href="#63" y="82.498"/><use xlink:href="#64" y="84.669"/></svg><svg x="1530"><use xlink:href="#a"/><use xlink:href="#41" y="2.171"/><use xlink:href="#42" y="4.342"/><use xlink:href="#43" y="6.513"/><use xlink:href="#44" y="8.684"/><use xlink:href="#45" y="10.855"/><use xlink:href="#46" y="13.026"/><use xlink:href="#47" y="15.197"/><use xlink:href="#48" y="17.368"/><use xlink:href="#49" y="19.539"/><use xlink:href="#50" y="21.71"/><use xlink:href="#51" y="23.881"/><use xlink:href="#52" y="28.223"/><use xlink:href="#42" y="30.394"/><use xlink:href="#53" y="32.565"/><use xlink:href="#54" y="34.736"/><use xlink:href="#55" y="36.907"/><use xlink:href="#56" y="39.078"/><use xlink:href="#57" y="41.249"/><use xlink:href="#48" y="43.42"/><use xlink:href="#49" y="45.591"/><use xlink:href="#50" y="47.762"/><use xlink:href="#58" y="49.933"/><use xlink:href="#59" y="52.104"/><use xlink:href="#60" y="54.275"/><use xlink:href="#61" y="56.446"/><use xlink:href="#49" y="58.617"/><use xlink:href="#62" y="60.788"/><use xlink:href="#63" y="62.959"/><use xlink:href="#64" y="65.13"/><use xlink:href="#65" y="69.472"/><use xlink:href="#42" y="71.643"/><use xlink:href="#66" y="73.814"/><use xlink:href="#67" y="75.985"/><use xlink:href="#68" y="78.156"/><use xlink:href="#56" y="80.327"/><use xlink:href="#69" y="82.498"/><use xlink:href="#48" y="84.669"/></svg><svg x="1620"><use xlink:href="#a"/><use xlink:href="#47"/><use xlink:href="#48" y="2.171"/><use xlink:href="#49" y="4.342"/><use xlink:href="#50" y="6.513"/><use xlink:href="#51" y="8.684"/><use xlink:href="#52" y="13.026"/><use xlink:href="#42" y="15.197"/><use xlink:href="#53" y="17.368"/><use xlink:href="#54" y="19.539"/><use xlink:href="#55" y="21.71"/><use xlink:href="#56" y="23.881"/><use xlink:href="#57" y="26.052"/><use xlink:href="#48" y="28.223"/><use xlink:href="#49" y="30.394"/><use xlink:href="#50" y="32.565"/><use xlink:href="#58" y="34.736"/><use xlink:href="#59" y="36.907"/><use xlink:href="#60" y="39.078"/><use xlink:href="#61" y="41.249"/><use xlink:href="#49" y="43.42"/><use xlink:href="#62" y="45.591"/><use xlink:href="#63" y="47.762"/><use xlink:href="#64" y="49.933"/><use xlink:href="#65" y="54.275"/><use xlink:href="#42" y="56.446"/><use xlink:href="#66" y="58.617"/><use xlink:href="#67" y="60.788"/><use xlink:href="#68" y="62.959"/><use xlink:href="#56" y="65.13"/><use xlink:href="#69" y="67.301"/><use xlink:href="#48" y="69.472"/><use xlink:href="#49" y="71.643"/><use xlink:href="#50" y="73.814"/><use xlink:href="#70" y="75.985"/><use xlink:href="#71" y="78.156"/><use xlink:href="#60" y="80.327"/><use xlink:href="#61" y="82.498"/><use xlink:href="#49" y="84.669"/></svg><svg x="1710"><use xlink:href="#a"/><use xlink:href="#59"/><use xlink:href="#60" y="2.171"/><use xlink:href="#61" y="4.342"/><use xlink:href="#49" y="6.513"/><use xlink:href="#62" y="8.684"/><use xlink:href="#63" y="10.855"/><use xlink:href="#64" y="13.026"/><use xlink:href="#65" y="17.368"/><use xlink:href="#42" y="19.539"/><use xlink:href="#66" y="21.71"/><use xlink:href="#67" y="23.881"/><use xlink:href="#68" y="26.052"/><use xlink:href="#56" y="28.223"/><use xlink:href="#69" y="30.394"/><use xlink:href="#48" y="32.565"/><use xlink:href="#49" y="34.736"/><use xlink:href="#50" y="36.907"/><use xlink:href="#70" y="39.078"/><use xlink:href="#71" y="41.249"/><use xlink:href="#60" y="43.42"/><use xlink:href="#61" y="45.591"/><use xlink:href="#49" y="47.762"/><use xlink:href="#62" y="49.933"/><use xlink:href="#72" y="52.104"/><use xlink:href="#73" y="54.275"/><use xlink:href="#74" y="58.617"/><use xlink:href="#42" y="60.788"/><use xlink:href="#75" y="62.959"/><use xlink:href="#76" y="65.13"/><use xlink:href="#77" y="67.301"/><use xlink:href="#78" y="69.472"/><use xlink:href="#79" y="71.643"/><use xlink:href="#48" y="73.814"/><use xlink:href="#49" y="75.985"/><use xlink:href="#50" y="78.156"/><use xlink:href="#80" y="80.327"/><use xlink:href="#81" y="82.498"/><use xlink:href="#82" y="84.669"/></svg><svg x="1800"><use xlink:href="#a"/><use xlink:href="#67"/><use xlink:href="#68" y="2.171"/><use xlink:href="#56" y="4.342"/><use xlink:href="#69" y="6.513"/><use xlink:href="#48" y="8.684"/><use xlink:href="#49" y="10.855"/><use xlink:href="#50" y="13.026"/><use xlink:href="#70" y="15.197"/><use xlink:href="#71" y="17.368"/><use xlink:href="#60" y="19.539"/><use xlink:href="#61" y="21.71"/><use xlink:href="#49" y="23.881"/><use xlink:href="#62" y="26.052"/><use xlink:href="#72" y="28.223"/><use xlink:href="#73" y="30.394"/><use xlink:href="#74" y="34.736"/><use xlink:href="#42" y="36.907"/><use xlink:href="#75" y="39.078"/><use xlink:href="#76" y="41.249"/><use xlink:href="#77" y="43.42"/><use xlink:href="#78" y="45.591"/><use xlink:href="#79" y="47.762"/><use xlink:href="#48" y="49.933"/><use xlink:href="#49" y="52.104"/><use xlink:href="#50" y="54.275"/><use xlink:href="#80" y="56.446"/><use xlink:href="#81" y="58.617"/><use xlink:href="#82" y="60.788"/><use xlink:href="#83" y="62.959"/><use xlink:href="#49" y="65.13"/><use xlink:href="#62" y="67.301"/><use xlink:href="#84" y="69.472"/><use xlink:href="#85" y="71.643"/><use xlink:href="#86" y="73.814"/><use xlink:href="#87" y="75.985"/><use xlink:href="#61" y="78.156"/><use xlink:href="#49" y="80.327"/><use xlink:href="#62" y="82.498"/><use xlink:href="#88" y="84.669"/><use xlink:href="#89" y="86.84"/></svg><svg x="1890"><use xlink:href="#a"/><use xlink:href="#61"/><use xlink:href="#49" y="2.171"/><use xlink:href="#62" y="4.342"/><use xlink:href="#72" y="6.513"/><use xlink:href="#73" y="8.684"/><use xlink:href="#74" y="13.026"/><use xlink:href="#42" y="15.197"/><use xlink:href="#75" y="17.368"/><use xlink:href="#76" y="19.539"/><use xlink:href="#77" y="21.71"/><use xlink:href="#78" y="23.881"/><use xlink:href="#79" y="26.052"/><use xlink:href="#48" y="28.223"/><use xlink:href="#49" y="30.394"/><use xlink:href="#50" y="32.565"/><use xlink:href="#80" y="34.736"/><use xlink:href="#81" y="36.907"/><use xlink:href="#82" y="39.078"/><use xlink:href="#83" y="41.249"/><use xlink:href="#49" y="43.42"/><use xlink:href="#62" y="45.591"/><use xlink:href="#84" y="47.762"/><use xlink:href="#85" y="49.933"/><use xlink:href="#86" y="52.104"/><use xlink:href="#87" y="54.275"/><use xlink:href="#61" y="56.446"/><use xlink:href="#49" y="58.617"/><use xlink:href="#62" y="60.788"/><use xlink:href="#88" y="62.959"/><use xlink:href="#89" y="65.13"/><use xlink:href="#90" y="69.472"/><use xlink:href="#1" y="73.814"/><use xlink:href="#91" y="75.985"/><use xlink:href="#1" y="78.156"/><use xlink:href="#92" y="82.498"/><use xlink:href="#93" y="84.669"/></svg><svg x="1980"><use xlink:href="#a"/><use xlink:href="#62"/><use xlink:href="#72" y="2.171"/><use xlink:href="#73" y="4.342"/><use xlink:href="#74" y="8.684"/><use xlink:href="#42" y="10.855"/><use xlink:href="#75" y="13.026"/><use xlink:href="#76" y="15.197"/><use xlink:href="#77" y="17.368"/><use xlink:href="#78" y="19.539"/><use xlink:href="#79" y="21.71"/><use xlink:href="#48" y="23.881"/><use xlink:href="#49" y="26.052"/><use xlink:href="#50" y="28.223"/><use xlink:href="#80" y="30.394"/><use xlink:href="#81" y="32.565"/><use xlink:href="#82" y="34.736"/><use xlink:href="#83" y="36.907"/><use xlink:href="#49" y="39.078"/><use xlink:href="#62" y="41.249"/><use xlink:href="#84" y="43.42"/><use xlink:href="#85" y="45.591"/><use xlink:href="#86" y="47.762"/><use xlink:href="#87" y="49.933"/><use xlink:href="#61" y="52.104"/><use xlink:href="#49" y="54.275"/><use xlink:href="#62" y="56.446"/><use xlink:href="#88" y="58.617"/><use xlink:href="#89" y="60.788"/><use xlink:href="#90" y="65.13"/><use xlink:href="#1" y="69.472"/><use xlink:href="#91" y="71.643"/><use xlink:href="#1" y="73.814"/><use xlink:href="#92" y="78.156"/><use xlink:href="#93" y="80.327"/><use xlink:href="#94" y="82.498"/><use xlink:href="#95" y="84.669"/></svg><svg x="2070"><use xlink:href="#a"/><use xlink:href="#80"/><use xlink:href="#81" y="2.171"/><use xlink:href="#82" y="4.342"/><use xlink:href="#83" y="6.513"/><use xlink:href="#49" y="8.684"/><use xlink:href="#62" y="10.855"/><use xlink:href="#84" y="13.026"/><use xlink:href="#85" y="15.197"/><use xlink:href="#86" y="17.368"/><use xlink:href="#87" y="19.539"/><use xlink:href="#61" y="21.71"/><use xlink:href="#49" y="23.881"/><use xlink:href="#62" y="26.052"/><use xlink:href="#88" y="28.223"/><use xlink:href="#89" y="30.394"/><use xlink:href="#90" y="34.736"/><use xlink:href="#1" y="39.078"/><use xlink:href="#91" y="41.249"/><use xlink:href="#1" y="43.42"/><use xlink:href="#92" y="47.762"/><use xlink:href="#93" y="49.933"/><use xlink:href="#94" y="52.104"/><use xlink:href="#95" y="54.275"/><text y="58.116" class="f">-</text><text x="2.004" y="58.116" class="f">签名:</text><text x="6.012" y="58.116" class="f">ECDSA</text><text x="12.024" y="58.116" class="f">DER编码（约71-73字节）</text><text y="62.458" class="f">【P2PKH地址】</text><text y="64.629" class="f">-</text><text x="2.004" y="64.629" class="f">与真实比特币主网地址格式一致（以&apos;1&apos;开头）</text><text y="66.8" class="f">-</text><text x="2.004" y="66.8" class="f">地址生成:</text><text x="8.016" y="66.8" class="f">公钥</text><text x="11.022" y="66.8" class="f">→</text><text x="13.026" y="66.8" class="f">SHA256</text><text x="20.04" y="66.8" class="f">→</text><text x="22.044" y="66.8" class="f">RIPEMD160</text><text x="32.064" y="66.8" class="f">→</text><text x="34.068" y="66.8" class="f">Base58Check</text><text y="71.142" class="f">【交易安全】</text><text y="73.313" class="f">-</text><text x="2.004" y="73.313" class="f">每笔交易的每个输入都经过ECDSA签名验证</text><text y="75.484" class="f">-</text><text x="2.004" y="75.484" class="f">无法伪造签名花费他人的UTXO</text><text y="77.655" class="f">-</text><text x="2.004" y="77.655" class="f">签名不可伪造、不可抵赖</text><use xlink:href="#1" y="80.327"/><text x="3.006" y="84.168" class="f">演示完成</text><use xlink:href="#1" y="84.669"/></svg></svg></g></g></svg></svg>